<svg xmlns="http://www.w3.org/2000/svg" viewBox="0 0 100 100" fill="#f7931a">
    <circle cx="50" cy="50" r="48" stroke="#333" stroke-width="4" fill="white"/>
    <path d="M66.41,60.32c1.7-4.11-1.12-7-1.12-7s2.52-1.3,4-3.69c2.81-4.52.87-10.43.87-10.43s3.34-1,4.49-4.2C76,28,70.19,23.3,70.19,23.3l-5.6,3.34c0,0,1.4-3.1-1.39-4.79S55.8,19.33,55.8,19.33V13h-11v6.33s-5.3.11-7.79,1.7c-2.49,1.59-4,4.79-4,4.79l5.6-3.34S32,28,33.36,35c1.15,3.2,4.49,4.2,4.49,4.2s-1.94,5.91.87,10.43c1.47,2.39,4,3.69,4,3.69s-2.82,2.89-1.12,7c1.7,4.1,6.15,2.39,6.15,2.39v9.79h-8.5V80h23V72.5h-8.5V62.71C59.24,62.71,64.71,64.42,66.41,60.32ZM47,48.42V36.58h6v11.84Zm0,17V54.58h6V65.42Z"/>
</svg>
